<?xml version="1.0" encoding="UTF-8"?>
<!-- Generated by Pixelmator Pro 4.0 -->
<svg width="1302" height="286" viewBox="0 0 1302 286" xmlns="http://www.w3.org/2000/svg">
    <path id="flytsonen-copy" fill="#e9e3d7" stroke="none" d="M 87.031219 81.774323 L 104.460602 81.774323 C 107.365501 81.774323 109.45047 82.231842 110.715508 83.146866 C 111.980537 84.06189 112.519348 85.578903 112.33194 87.697906 L 111.207458 104.890747 C 111.02005 108.358215 110.504662 110.549454 109.661308 111.464478 C 108.817947 112.379501 106.943825 112.837021 104.038925 112.837021 C 103.38298 112.837021 101.83683 112.740692 99.400459 112.548065 C 97.713745 112.451736 96.308151 112.40358 95.183678 112.40358 C 91.248009 112.40358 88.577377 113.727966 87.171783 116.376709 C 85.76619 119.025467 85.063385 124.058105 85.063385 131.474625 C 85.063385 141.588058 86.141014 150.112244 88.296257 157.047165 C 89.139618 160.033035 90.357796 162.224274 91.950806 163.620895 C 93.543816 165.017517 96.167595 166.245575 99.822136 167.305084 C 108.068359 169.809357 112.191376 174.480804 112.191376 181.319397 C 112.191376 188.543274 107.388992 193.744476 97.784027 196.922974 C 88.179062 200.101501 72.413155 201.690735 50.485741 201.690735 C 17.969452 201.690735 1.711583 195.044769 1.711583 181.752838 C 1.711583 178.478012 2.390954 176.070053 3.749696 174.528961 C 5.108438 172.987854 8.083615 171.205963 12.675226 169.183289 C 17.641663 166.871643 20.640266 162.58548 21.671038 156.324783 C 23.264046 146.885574 24.060549 136.772141 24.060549 125.984482 C 24.060549 121.168564 23.240618 117.821487 21.600758 115.943283 C 19.960896 114.065079 16.98572 113.174133 12.675226 113.270447 C 7.615083 113.270447 4.382214 113.005569 2.976619 112.475815 C 1.571023 111.946075 0.915079 110.669846 1.008785 108.647171 L 2.133261 90.442978 C 2.320674 87.457108 2.812632 85.602982 3.609136 84.8806 C 4.405641 84.158203 6.631166 83.700699 10.285714 83.508057 C 13.75285 83.31543 15.486418 81.581696 15.486418 78.30687 C 15.486418 76.958405 14.221381 73.876221 11.69131 69.060303 C 7.380817 61.065872 5.225571 53.071442 5.225571 45.077011 C 5.225571 33.326172 9.161177 23.742493 17.032572 16.325958 C 28.558516 5.441986 45.097504 0 66.650085 0 C 84.36071 0 98.510193 4.286163 109.099068 12.858521 C 117.251587 19.504486 121.327751 27.161804 121.327751 35.830444 C 121.327751 42.091141 119.313065 47.364578 115.283691 51.650742 C 111.254318 55.93692 106.241028 58.080002 100.24382 58.080002 C 93.496964 58.080002 87.031219 55.672043 80.846603 50.856125 C 79.347298 49.603973 75.786461 45.799408 70.164078 39.442383 C 66.134705 35.011734 62.105331 32.796417 58.075958 32.796417 C 55.452179 32.796417 53.203228 33.759598 51.329098 35.685974 C 49.454971 37.612335 48.51791 39.972137 48.51791 42.765366 C 48.51791 50.374527 55.545826 58.513428 69.601837 67.182083 C 73.912331 69.878998 76.840652 71.998016 78.38681 73.539108 C 79.932968 75.0802 81.315132 77.24736 82.533318 80.040604 C 83.189262 81.196411 84.68856 81.774323 87.031219 81.774323 Z M 710.59845 202.702087 C 733.556519 202.702087 753.9375 195.719131 771.741821 181.752838 C 790.389404 167.112305 799.713196 149.341812 799.713196 128.440598 C 799.713196 116.497116 796.808289 105.035217 790.998474 94.054932 C 785.376099 83.556213 777.926453 75.032043 768.649536 68.482391 C 755.717957 59.332138 740.678162 54.757019 723.529907 54.757019 C 698.884888 54.757019 677.941772 62.366043 660.699829 77.584473 C 644.207397 92.032364 635.961304 110.621567 635.961304 133.352829 C 635.961304 133.861099 635.965454 134.366989 635.973816 134.870483 L 632.710938 130.609375 C 624.279297 121.939102 612.144287 113.944672 596.307922 106.624481 C 587.499512 102.482788 583.095337 98.052139 583.095337 93.332535 C 583.095337 90.63562 584.055847 88.299896 585.976807 86.325378 C 587.897766 84.350845 590.170166 83.363586 592.793945 83.363586 C 596.729614 83.363586 601.696045 86.349457 607.693237 92.321198 C 613.409363 97.907669 617.555847 101.519608 620.132751 103.157013 C 622.709717 104.794434 625.638 105.613129 628.917725 105.613129 C 632.853394 105.613129 636.133118 104.336914 638.756897 101.784485 C 641.380676 99.23204 642.692566 96.029449 642.692566 92.176712 C 642.692566 88.227661 641.568115 83.556213 639.319153 78.162384 C 637.07019 72.768555 634.165283 67.808167 630.604431 63.281189 C 626.200256 57.598404 621.842896 54.757019 617.53241 54.757019 C 616.033142 54.757019 614.205872 55.190445 612.050598 56.057312 C 607.458984 57.791046 604.366699 58.657913 602.773682 58.657913 C 601.368042 58.657913 599.587646 58.465271 597.432434 58.080002 C 586.843567 55.960999 579.206543 54.901489 574.521179 54.901489 C 557.654053 54.901489 544.347778 60.825073 534.602295 72.672241 C 527.761719 80.955627 524.341431 90.828262 524.341431 102.290146 C 524.341431 112.885178 527.691467 122.228058 534.391479 130.318802 C 541.091431 138.409546 551.984802 146.259506 567.071533 153.868652 C 574.286926 157.432434 577.894653 161.3815 577.894653 165.71582 C 577.894653 168.509064 576.957581 170.748459 575.083435 172.434021 C 573.20929 174.119598 570.726074 174.962387 567.633789 174.962387 C 564.728882 174.962387 562.011414 174.167755 559.481323 172.578506 C 556.951233 170.989258 553.765259 168.075623 549.923279 163.837616 C 542.895325 156.132141 538.280273 151.388458 536.078186 149.606567 C 533.876038 147.824677 531.463135 146.933731 528.839355 146.933731 C 522.092468 146.933731 518.719055 151.36438 518.719055 160.225677 C 518.719055 165.71582 520.358948 172.289551 523.638672 179.946869 C 526.918396 187.604187 530.479187 193.214722 534.321167 196.778503 C 536.851257 199.090149 540.318359 200.245972 544.722595 200.245972 C 545.940735 200.245972 547.908569 200.053345 550.626099 199.66806 C 552.219116 199.379105 553.624695 199.234619 554.842834 199.234619 C 555.967346 199.234619 561.074341 199.764374 570.163879 200.823883 C 579.815613 202.076019 586.46875 202.702087 590.123291 202.702087 C 604.366699 202.702087 616.407959 198.801193 626.247131 190.999405 C 635.709473 183.585205 641.25592 174.653381 642.886292 164.203766 L 642.411499 164.250946 C 645.72876 171.248993 650.325562 177.516388 656.201904 183.053131 C 670.070435 196.152435 688.202393 202.702087 710.59845 202.702087 Z M 1150.255859 200.902679 C 1166.560791 200.902679 1178.555176 199.55423 1186.239136 196.857315 C 1193.922974 194.1604 1197.765015 189.970551 1197.765015 184.28775 C 1197.765015 182.072449 1197.249634 180.0979 1196.218872 178.364182 C 1192.283203 172.296112 1189.963867 168.202576 1189.261108 166.083588 C 1188.55835 163.964569 1188.206909 160.06369 1188.206909 154.38089 L 1188.203125 125.773438 C 1188.206909 114.89035 1189.378296 107.377518 1191.720947 103.235825 C 1194.063599 99.094131 1198.374023 97.023285 1204.652344 97.023285 C 1211.211792 97.023285 1215.709717 99.575714 1218.146118 104.680603 C 1221.144653 111.037613 1222.644043 120.862091 1222.644043 134.154037 C 1222.644043 157.077942 1220.769897 170.562378 1217.021606 174.607758 C 1213.835571 178.171539 1211.961426 180.41095 1211.399292 181.325974 C 1210.837036 182.240997 1210.555908 183.661682 1210.555908 185.588058 C 1210.555908 190.981888 1213.32019 194.882782 1218.848877 197.290741 C 1224.190186 199.602386 1233.326538 200.758209 1246.258057 200.758209 C 1265.280396 200.758209 1278.493042 199.506073 1285.895752 197.001801 C 1293.298584 194.497513 1297 190.066864 1297 183.709854 C 1297 180.916626 1296.297241 178.749451 1294.891602 177.208359 C 1290.112549 172.007172 1287.231079 168.491547 1286.247192 166.661499 C 1285.263306 164.831451 1284.677612 161.990051 1284.490234 158.137314 L 1282.523438 107.28125 C 1281.960083 95.434036 1280.50769 86.452332 1278.165039 80.336121 C 1275.822388 74.219894 1271.699341 68.898315 1265.795776 64.371338 C 1257.362183 58.014328 1247.241943 54.835815 1235.434937 54.835815 C 1220.067139 54.835815 1208.35376 60.807556 1200.295044 72.751038 C 1197.765015 76.411148 1195.375488 78.241196 1193.126465 78.241196 C 1189.378296 78.241196 1187.50415 75.92955 1187.50415 71.306274 L 1187.648438 69.28125 L 1187.789063 65.671875 C 1187.785278 62.782089 1186.824707 60.277817 1184.903809 58.158813 C 1182.982788 56.039795 1180.616699 54.980301 1177.805542 54.980301 C 1174.713257 54.980301 1168.99707 56.112045 1160.657227 58.375519 C 1152.317383 60.639008 1143.649536 63.408157 1134.653687 66.682983 C 1124.439697 70.439407 1117.692871 73.54567 1114.413208 76.001785 C 1111.133423 78.457916 1109.49353 81.612335 1109.49353 85.465073 C 1109.49353 89.221497 1111.508301 92.399994 1115.537598 95.000595 C 1120.2229 97.986465 1123.057617 100.514832 1124.041504 102.585678 C 1125.025391 104.656525 1125.517334 109.014923 1125.517334 115.660889 C 1125.517334 127.700699 1125.189453 139.210739 1124.533447 150.19104 C 1123.971191 159.437622 1123.362061 165.240799 1122.706177 167.600586 C 1122.050171 169.960388 1120.504028 172.055328 1118.067749 173.885376 C 1115.069092 176.100693 1113.171509 177.810349 1112.375 179.014328 C 1111.578491 180.218307 1111.180298 181.97612 1111.180298 184.28775 C 1111.180298 195.36438 1124.205444 200.902679 1150.255859 200.902679 Z M 1044.057983 202.702087 C 1063.54895 202.702087 1080.743896 196.971146 1095.643433 185.509247 C 1104.076904 179.055923 1108.293701 172.361786 1108.293701 165.426865 C 1108.293701 162.152039 1107.122437 158.973541 1104.779785 155.891342 C 1102.437134 152.809158 1100.047607 151.268066 1097.611206 151.268066 C 1095.737061 151.268066 1093.207031 152.423874 1090.020996 154.735519 C 1086.460083 157.336121 1081.938843 159.527374 1076.457031 161.309265 C 1070.975098 163.091141 1065.985352 163.982086 1061.487427 163.982086 C 1053.897095 163.982086 1046.79895 161.212936 1040.192627 155.674622 C 1033.586182 150.136322 1030.283203 144.236816 1030.283203 137.97612 C 1030.283203 135.375519 1031.735596 134.075226 1034.640503 134.075226 L 1100.703125 134.078125 C 1104.73291 134.075226 1108.012573 132.076614 1110.542725 128.079407 C 1113.072754 124.082184 1114.337769 118.953232 1114.337769 112.692535 C 1114.337769 104.987061 1112.135742 97.088959 1107.731567 88.998215 C 1103.889404 81.870651 1098.829346 75.706268 1092.551025 70.505081 C 1080.088013 60.102692 1064.95459 54.901489 1047.150391 54.901489 C 1035.999146 54.901489 1025.644775 56.972336 1016.08667 61.114029 C 1003.342529 66.604172 992.847534 74.935715 984.601379 86.108658 C 975.043213 99.01532 970.264282 113.55928 970.264282 129.740891 C 970.264282 141.780701 973.028503 153.242584 978.557312 164.126556 C 982.774109 172.313629 988.115234 179.296722 994.581055 185.075821 C 1007.88739 196.82666 1024.379639 202.702087 1044.057983 202.702087 Z M 833.443787 201.83522 C 849.74884 201.83522 861.743103 200.486755 869.427002 197.789856 C 877.110962 195.092926 880.952881 190.903076 880.952881 185.220306 C 880.952881 183.004974 880.4375 181.030457 879.406738 179.296722 C 875.471069 173.228653 873.151855 169.135132 872.449036 167.016113 C 871.746277 164.897125 871.394836 160.996216 871.394836 155.313431 L 871.398438 126.703125 C 871.394836 115.822891 872.566162 108.310043 874.908875 104.168365 C 877.251526 100.026672 881.562012 97.955826 887.840332 97.955826 C 894.39978 97.955826 898.897644 100.508255 901.334045 105.613129 C 904.332642 111.970154 905.83197 121.794632 905.83197 135.086563 C 905.83197 158.010468 903.957825 171.494934 900.209534 175.540298 C 897.02356 179.10408 895.149414 181.343475 894.587158 182.258514 C 894.024963 183.173523 893.743835 184.594238 893.743835 186.520599 C 893.743835 191.914429 896.508179 195.815323 902.036865 198.223282 C 907.378113 200.534927 916.514465 201.690735 929.445923 201.690735 C 948.468445 201.690735 961.680908 200.438599 969.08374 197.934326 C 976.486511 195.430054 980.187927 190.999405 980.187927 184.642395 C 980.187927 181.849152 979.485168 179.681992 978.079529 178.1409 C 973.300537 172.939697 970.419067 169.424072 969.43512 167.594025 C 968.451233 165.763977 967.86554 162.922577 967.678162 159.069855 L 965.710938 108.210938 C 965.148071 96.366562 963.695618 87.384872 961.352966 81.268661 C 959.010315 75.152435 954.887207 69.830841 948.983704 65.303879 C 940.550171 58.946869 930.429993 55.768356 918.622864 55.768356 C 903.254883 55.768356 891.541748 61.740097 883.482971 73.683578 C 880.952881 77.343689 878.563416 79.173737 876.314453 79.173737 C 872.566162 79.173737 870.692078 76.862091 870.692078 72.2388 L 870.835938 70.21875 L 870.976563 66.601563 C 870.973206 63.71463 870.012695 61.210342 868.091736 59.091339 C 866.170715 56.972336 863.804626 55.912842 860.993469 55.912842 C 857.901123 55.912842 852.185059 57.044571 843.845215 59.30806 C 835.50531 61.571548 826.837463 64.340698 817.841675 67.615524 C 807.627686 71.371933 800.880798 74.47821 797.601074 76.934326 C 794.32135 79.390442 792.681519 82.544876 792.681519 86.397614 C 792.681519 90.154037 794.696228 93.332535 798.725586 95.933136 C 803.410889 98.919006 806.245483 101.447357 807.229431 103.518204 C 808.213318 105.58905 808.705322 109.947464 808.705322 116.59343 C 808.705322 128.63324 808.377319 140.14328 807.721375 151.123581 C 807.15918 160.370148 806.550049 166.17334 805.894104 168.533142 C 805.238159 170.892944 803.692017 172.987854 801.255676 174.817902 C 798.257019 177.033234 796.359497 178.742889 795.562988 179.946869 C 794.766479 181.150848 794.368225 182.908661 794.368225 185.220306 C 794.368225 196.296906 807.393311 201.83522 833.443787 201.83522 Z M 1031.195313 105.320313 C 1029.838135 104.168365 1029.158691 102.145676 1029.158691 99.256119 C 1029.158691 95.210739 1030.564331 91.213531 1033.375488 87.264481 C 1036.374146 83.026474 1040.49707 80.907455 1045.744751 80.907455 C 1050.430054 80.907455 1054.22522 82.544876 1057.130127 85.819702 C 1060.035034 89.094528 1061.487427 93.332535 1061.487427 98.533737 C 1061.487427 104.216522 1058.48877 107.057907 1052.491577 107.057907 L 1038.296875 107.054688 C 1034.921631 107.057907 1032.555542 106.479996 1031.195313 105.320313 Z M 723.529907 167.305084 C 716.970459 167.305084 712.238281 163.356018 709.333435 155.457916 C 706.428528 147.752441 703.921875 138.915222 701.813477 128.946274 C 699.705078 118.97731 698.650879 111.103287 698.650879 105.324173 C 698.650879 100.122986 699.892517 95.957214 702.375732 92.826859 C 704.858948 89.696518 708.162109 88.131348 712.285156 88.131348 C 717.813843 88.323975 722.124329 91.695129 725.216614 98.244781 C 728.215271 104.698105 730.768738 113.077805 732.877136 123.383881 C 734.985535 133.689957 736.039734 142.888351 736.039734 150.979111 C 736.039734 161.863083 731.869812 167.305084 723.529907 167.305084 Z M 178.952972 201.690735 C 194.976822 201.690735 206.36203 200.631241 213.108948 198.512238 C 216.763489 197.452728 219.691818 195.622681 221.893921 193.022095 C 224.096024 190.421494 225.197067 187.531937 225.197067 184.353424 C 225.197067 181.849152 224.611404 179.922791 223.440079 178.574326 C 222.268738 177.225861 219.94957 175.781097 216.482376 174.23999 C 212.453003 172.409943 210.133774 169.809357 209.524673 166.438202 C 208.915588 163.067062 208.611038 151.123703 208.611038 130.607758 L 208.609375 84.226563 C 208.798447 69.878876 209.501251 54.082916 210.719437 36.841797 C 211.656494 25.765167 212.125031 18.68576 212.125031 15.603577 C 212.125031 6.164368 208.423691 1.444763 201.020828 1.444763 C 196.33551 1.444763 188.839066 2.359802 178.531296 4.18985 C 168.223541 6.019897 159.836945 7.946259 153.37114 9.968964 C 143.71933 12.954834 136.691467 16.205566 132.287216 19.721191 C 127.883011 23.236816 125.680916 27.354431 125.680916 32.074036 C 125.680916 35.059906 126.407135 37.588257 127.859589 39.659103 C 129.312042 41.72995 132.006088 43.921188 135.941757 46.232834 C 141.189377 49.50766 144.46904 54.51622 145.78093 61.258514 C 147.092819 68.000793 147.748764 83.122665 147.748764 106.624481 C 147.748764 129.741028 146.999115 147.559799 145.499802 160.081192 C 144.656448 167.401398 142.407501 171.880188 138.752945 173.517609 C 134.817291 175.251343 132.263779 176.744278 131.092453 177.996414 C 129.921127 179.248566 129.335464 181.030457 129.335464 183.342087 C 129.335464 186.231644 130.413086 189.000793 132.568329 191.649551 C 134.723572 194.298309 137.487915 196.248749 140.861343 197.500885 C 148.170502 200.294128 160.867584 201.690735 178.952972 201.690735 Z M 457.577179 202.702087 C 476.506104 202.702087 492.623352 196.874817 505.929657 185.220306 C 512.301819 179.730148 515.487671 173.999207 515.487671 168.027466 C 515.487671 164.75264 514.550659 161.718597 512.676514 158.925385 C 510.802368 156.132141 508.740845 154.735519 506.491882 154.735519 C 505.086304 154.735519 503.680695 155.168961 502.275116 156.035828 C 496.277893 159.503281 491.452026 161.237015 487.797485 161.237015 C 483.486969 161.237015 479.949554 159.406967 477.185211 155.746872 C 474.420898 152.086761 473.038727 147.367157 473.038727 141.588058 L 473.039063 92.757813 C 473.038727 90.057709 473.507263 88.227661 474.444305 87.264481 C 475.381378 86.3013 477.161804 85.819702 479.785583 85.819702 L 505.226563 85.820313 C 508.694 85.819702 511.083496 84.928757 512.395386 83.146866 C 513.707275 81.364975 514.36322 78.162384 514.36322 73.539108 L 514.359375 65.015625 C 514.36322 60.776917 513.847839 58.007767 512.817078 56.707458 C 511.786285 55.407166 509.537354 54.757019 506.070221 54.757019 L 480.070313 54.757813 C 477.161804 54.757019 475.264252 54.323578 474.374023 53.456711 C 473.483826 52.589844 473.038727 50.711639 473.038727 47.822083 L 473.039063 28.320313 C 473.038727 25.042786 472.640472 22.851532 471.843964 21.743866 C 471.047455 20.63623 469.477875 20.082397 467.135223 20.082397 L 455.75 20.085938 C 453.407227 20.082397 451.439392 20.515808 449.846405 21.38269 L 385.46875 62.992188 C 383.4086 64.340698 382.330963 66.459702 382.237274 69.349258 L 382.234375 75.703125 C 382.237274 79.077408 382.612091 81.220505 383.361725 82.135529 C 384.111389 83.050552 385.84494 83.508057 388.562439 83.508057 L 403.039063 83.507813 C 405.195313 83.508057 406.53064 83.772934 407.046021 84.302689 C 407.561401 84.832443 407.819092 86.204971 407.819092 88.420303 L 407.820313 155.171875 C 407.819092 169.424194 412.363861 180.910049 421.453369 189.626862 C 430.542999 198.343689 442.584167 202.702087 457.577179 202.702087 Z M 266.238892 286 C 283.387268 286 298.052124 280.028259 310.234009 268.084778 C 316.137512 262.305664 321.408508 255.298508 326.046967 247.063278 C 330.685425 238.828064 335.300476 228.208954 339.89209 215.205963 L 358.445313 162.757813 C 363.787201 147.927429 368.519379 137.284378 372.642456 130.831039 C 375.266235 126.785675 378.827087 123.896118 383.324982 122.162384 C 388.666229 120.236023 392.344208 118.189255 394.358917 116.022095 C 396.373596 113.854919 397.38092 110.989456 397.38092 107.425674 C 397.38092 97.601196 387.448181 92.68895 367.582306 92.68895 C 356.899719 92.68895 348.372498 94.157806 342.000488 97.09552 C 335.628448 100.033234 332.442413 103.958206 332.442413 108.870453 C 332.442413 111.952637 334.222839 115.660889 337.783691 119.995224 C 340.126343 122.788452 341.297668 126.400391 341.297668 130.831039 C 341.297668 136.321198 339.751526 142.028061 336.65921 147.951645 C 333.566895 153.875229 330.568298 156.837021 327.663391 156.837021 C 324.945923 156.837021 321.806763 153.465866 318.245911 146.723587 C 315.059906 140.751846 312.974945 136.513824 311.991028 134.009552 C 311.007111 131.50528 310.515137 129.097321 310.515137 126.785675 C 310.515137 124.377716 311.545898 121.632629 313.607452 118.550446 C 315.762695 115.27562 316.840332 112.434235 316.840332 110.026276 C 316.840332 103.283981 312.998352 98.51622 305.314423 95.722992 C 299.598358 93.603973 291.773926 92.544479 281.841003 92.544479 C 267.691284 92.544479 255.087891 93.555817 244.030472 95.578506 C 227.444336 98.66069 219.151443 104.487961 219.151443 113.060303 C 219.151443 115.179306 219.830811 117.370544 221.18956 119.634033 C 222.548294 121.897507 224.164734 123.41452 226.038864 124.185074 C 232.129776 126.978302 236.06543 129.338104 237.845856 131.264481 C 239.626282 133.190842 242.296906 138.00676 245.857758 145.712234 L 279.734375 219.828125 C 284.605316 230.424286 287.041687 237.985275 287.041687 242.512238 C 287.041687 246.364975 286.05777 249.591644 284.089935 252.19223 C 282.122101 254.792831 279.68576 256.09314 276.780853 256.09314 C 273.126312 256.09314 270.78363 253.974121 269.752869 249.736115 C 268.440979 244.149658 267.457062 240.53772 266.801117 238.900299 C 266.145172 237.262878 264.833282 235.384674 262.865448 233.265671 C 258.742371 228.642395 253.307404 226.33075 246.560547 226.33075 C 239.81369 226.33075 234.121033 228.8591 229.482559 233.915817 C 224.844101 238.972534 222.524872 245.209152 222.524872 252.625671 C 222.524872 261.583282 225.85144 268.95163 232.504593 274.730743 C 241.125641 282.243591 252.370285 286 266.238892 286 Z"/>
</svg>
